<svg xmlns="http://www.w3.org/2000/svg" viewBox="0 0 128 128">
  <rect width="128" height="128" rx="24" fill="#f4f0e8"/>
  <!-- Taegeuk circle -->
  <circle cx="64" cy="58" r="28" fill="#cd2e3a"/>
  <path d="M64 30 A14 14 0 0 1 64 58 A14 14 0 0 0 64 86 A28 28 0 0 1 64 30Z" fill="#0047a0"/>
  <!-- Trigrams simplified -->
  <g stroke="#2c2820" stroke-width="3.5" stroke-linecap="round">
    <!-- top-left ☰ -->
    <line x1="20" y1="22" x2="34" y2="14"/>
    <line x1="18" y1="28" x2="32" y2="20"/>
    <line x1="16" y1="34" x2="30" y2="26"/>
    <!-- top-right ☵ -->
    <line x1="94" y1="14" x2="108" y2="22"/>
    <line x1="98" y1="19" x2="102" y2="21"/>
    <line x1="92" y1="26" x2="106" y2="34"/>
    <!-- bottom-left ☲ -->
    <line x1="16" y1="82" x2="30" y2="90"/>
    <line x1="20" y1="87" x2="24" y2="89"/>
    <line x1="18" y1="88" x2="32" y2="96"/>
    <!-- bottom-right ☷ -->
    <line x1="94" y1="90" x2="108" y2="82"/>
    <line x1="96" y1="94" x2="100" y2="92"/>
    <line x1="92" y1="96" x2="106" y2="88"/>
    <line x1="98" y1="99" x2="102" y2="97"/>
  </g>
  <!-- Label -->
  <text x="64" y="118" text-anchor="middle" font-family="sans-serif" font-size="11" font-weight="600" fill="#2c2820">서울</text>
</svg>
